<?xml version="1.0" standalone="no"?>
<!DOCTYPE svg PUBLIC "-//W3C//DTD SVG 20010904//EN"
 "http://www.w3.org/TR/2001/REC-SVG-20010904/DTD/svg10.dtd">
<svg version="1.0" xmlns="http://www.w3.org/2000/svg"
 width="500.000000pt" height="500.000000pt" viewBox="0 0 500.000000 500.000000"
 preserveAspectRatio="xMidYMid meet">
<metadata>
Created by potrace 1.14, written by Peter Selinger 2001-2017
</metadata>
<g transform="translate(0.000000,500.000000) scale(0.100000,-0.100000)"
fill="#000000" stroke="none">
<path d="M1150 4595 l0 -86 -236 -247 -235 -247 -157 -38 c-86 -21 -167 -40
-180 -43 -15 -3 -22 -12 -22 -27 0 -44 10 -47 95 -26 94 23 105 26 390 77 121
22 248 44 283 48 l62 7 0 -266 c0 -260 0 -266 21 -272 11 -4 31 -4 45 -1 l24
6 2 273 3 272 105 12 c691 77 1405 85 2130 24 l195 -16 6 -130 c4 -71 7 -203
8 -292 l1 -163 39 0 40 0 3 53 c2 28 1 157 -2 285 -3 129 -3 235 0 237 3 1 57
-3 120 -11 63 -7 160 -18 215 -24 144 -16 198 -26 403 -71 101 -23 186 -39
188 -36 3 2 6 17 7 32 2 28 0 28 -103 52 -211 49 -211 49 -323 147 -113 98
-257 228 -357 321 -36 33 -87 80 -113 103 -42 40 -47 48 -47 88 l0 44 -45 0
-45 0 0 -42 0 -43 -228 -87 c-297 -113 -455 -163 -632 -198 -357 -71 -639 -66
-973 16 -170 42 -415 138 -547 214 -44 26 -45 27 -48 83 l-3 57 -44 0 -45 0 0
-85z m2530 -271 l0 -205 -67 5 c-139 12 -192 15 -518 32 -244 12 -326 14 -575
14 -228 0 -319 -2 -590 -14 -170 -8 -401 -26 -570 -46 -47 -5 -93 -10 -102
-10 -17 0 -18 16 -18 201 0 110 3 199 8 197 4 -1 63 -31 132 -65 102 -51 320
-133 389 -147 9 -2 23 -6 31 -9 8 -4 26 -9 40 -11 14 -3 25 -5 25 -6 0 -2 17
-5 125 -24 142 -24 343 -38 450 -31 138 9 345 37 405 55 24 7 80 19 115 24 7
1 82 24 160 49 36 11 119 40 185 65 66 24 125 45 130 46 6 2 21 8 35 14 60 29
196 79 203 75 4 -2 7 -96 7 -209z m155 100 c56 -52 145 -132 239 -214 138
-121 181 -169 139 -156 -10 3 -40 8 -68 11 -27 4 -61 8 -74 10 -14 3 -52 7
-85 10 -76 7 -209 25 -212 28 -6 8 -14 367 -7 367 4 0 35 -25 68 -56z m-2687
-171 l-3 -167 -35 -7 c-19 -3 -71 -11 -115 -17 -88 -13 -129 -19 -190 -28
l-40 -6 57 58 c107 110 258 269 285 301 16 18 31 32 36 33 4 0 6 -75 5 -167z"/>
<path d="M3357 3253 c-17 -16 -6 -54 18 -65 22 -10 29 -9 46 9 17 17 19 24 10
42 -11 20 -59 30 -74 14z"/>
<path d="M1130 3050 l0 -190 130 0 130 0 0 30 0 29 -92 3 -93 3 -3 53 -3 52
80 0 81 0 0 30 0 30 -80 0 -80 0 0 45 0 45 90 0 90 0 0 30 0 30 -125 0 -125 0
0 -190z"/>
<path d="M1720 3050 l0 -190 125 0 125 0 0 30 0 30 -85 0 -85 0 0 160 0 160
-40 0 -40 0 0 -190z"/>
<path d="M2354 3053 l63 -188 45 -3 46 -3 61 183 c34 101 61 187 61 191 0 5
-16 7 -36 5 l-35 -3 -46 -139 c-30 -91 -48 -135 -53 -125 -5 8 -27 71 -50 142
l-41 127 -39 0 -38 0 62 -187z"/>
<path d="M1464 3126 c-21 -18 -28 -32 -28 -61 0 -45 26 -70 90 -86 56 -14 71
-31 48 -54 -20 -19 -67 -14 -94 10 -15 13 -19 12 -39 -9 l-23 -25 33 -20 c51
-31 142 -29 174 4 36 35 35 96 -1 124 -15 12 -32 21 -38 21 -6 0 -28 5 -48 11
-27 7 -38 15 -38 29 0 27 41 36 79 17 28 -14 31 -13 48 5 17 19 17 21 -6 39
-35 29 -121 26 -157 -5z"/>
<path d="M2048 3129 c-42 -22 -44 -26 -23 -53 14 -18 16 -18 40 -2 30 20 81
24 97 8 20 -20 0 -40 -54 -51 -29 -7 -63 -18 -75 -26 -42 -28 -38 -111 8 -135
34 -19 88 -14 113 9 21 20 22 20 34 1 11 -19 70 -29 84 -15 10 10 -5 55 -18
55 -11 0 -14 18 -14 80 0 89 -11 123 -47 139 -37 17 -104 12 -145 -10z m122
-158 c0 -53 -60 -82 -91 -45 -18 22 -1 46 42 61 48 17 49 16 49 -16z"/>
<path d="M2739 3135 c-81 -44 -91 -188 -18 -250 25 -20 41 -25 86 -25 96 0
143 48 143 148 0 55 -29 108 -70 129 -33 17 -109 16 -141 -2z m117 -59 c15
-11 19 -26 19 -69 0 -67 -15 -87 -67 -87 -35 0 -40 3 -53 34 -17 39 -11 91 13
119 18 21 61 22 88 3z"/>
<path d="M3020 3005 l0 -145 35 0 35 0 0 93 c0 111 12 137 66 137 46 0 56 -28
52 -142 l-3 -88 39 0 38 0 -4 121 c-4 118 -5 122 -32 145 -35 31 -93 32 -130
3 l-26 -20 0 20 c0 17 -6 21 -35 21 l-35 0 0 -145z"/>
<path d="M3360 3005 l0 -145 35 0 35 0 0 145 0 145 -35 0 -35 0 0 -145z"/>
<path d="M3540 3132 c-40 -22 -44 -31 -25 -56 13 -17 16 -17 37 -4 36 23 73
29 93 14 30 -22 11 -43 -51 -57 -77 -17 -99 -36 -99 -89 0 -32 6 -47 24 -61
32 -26 102 -26 126 1 l18 20 14 -20 c13 -19 71 -29 85 -15 10 10 -5 55 -18 55
-11 0 -14 18 -14 80 0 89 -11 123 -47 139 -36 17 -104 13 -143 -7z m120 -159
c0 -51 -60 -84 -90 -48 -26 31 11 64 83 74 4 1 7 -11 7 -26z"/>
<path d="M3810 2925 c-21 -25 3 -67 37 -63 34 4 52 31 37 56 -15 23 -57 27
-74 7z"/>
</g>
</svg>
